<?xml version="1.0" encoding="utf-8"?>
<svg version="1.1" xmlns:xlink="http://www.w3.org/1999/xlink" width="253px" height="253px" xmlns="http://www.w3.org/2000/svg">
  <defs>
    <filter x="267px" y="466px" width="253px" height="253px" filterUnits="userSpaceOnUse" id="filter5">
      <feOffset dx="1" dy="1" in="SourceAlpha" result="shadowOffsetInner" />
      <feGaussianBlur stdDeviation="2.5" in="shadowOffsetInner" result="shadowGaussian" />
      <feComposite in2="shadowGaussian" operator="atop" in="SourceAlpha" result="shadowComposite" />
      <feColorMatrix type="matrix" values="0 0 0 0 0  0 0 0 0 0  0 0 0 0 0  0 0 0 0.698039215686274 0  " in="shadowComposite" />
    </filter>
    <g id="widget6">
      <path d="M 392.5 470  C 460.54 470  514 523.46  514 591.5  C 514 659.54  460.54 713  392.5 713  C 324.46 713  271 659.54  271 591.5  C 271 523.46  324.46 470  392.5 470  Z " fill-rule="nonzero" fill="#009dd9" stroke="none" />
      <path d="M 392.5 470.5  C 460.26 470.5  513.5 523.74  513.5 591.5  C 513.5 659.26  460.26 712.5  392.5 712.5  C 324.74 712.5  271.5 659.26  271.5 591.5  C 271.5 523.74  324.74 470.5  392.5 470.5  Z " stroke-width="1" stroke="#ffffff" fill="none" />
    </g>
  </defs>
  <g transform="matrix(1 0 0 1 -267 -466 )">
    <use xlink:href="#widget6" filter="url(#filter5)" />
    <use xlink:href="#widget6" />
  </g>
</svg>